<svg width="1440" height="838" viewBox="0 0 1440 838" fill="none" xmlns="http://www.w3.org/2000/svg">
<g filter="url(#filter0_d_316_2297)">
<rect x="1" y="101.001" width="1437" height="563" fill="white"/>
</g>
<path d="M-102.506 128.172C-108.028 128.107 -112.604 132.541 -112.17 138.047C-110.112 164.119 -98.844 189.143 -79.7444 209.686C-58.2156 232.842 -28.068 248.872 5.56177 255.045C39.1915 261.218 74.2226 257.153 104.686 243.541C135.15 229.929 159.161 207.613 172.629 180.395C186.096 153.178 188.187 122.743 178.544 94.2756C168.902 65.8086 148.123 41.0712 119.748 24.2782C91.373 7.48525 57.1577 -0.324215 22.9318 2.18047C-7.18109 4.38416 -35.6628 14.452 -58.7862 30.9145C-63.7624 34.4573 -63.8373 41.6467 -59.2581 45.6895L-5.19386 93.4206C-1.4795 96.6998 4.03475 96.6666 8.32746 94.1923C15.2363 90.2099 23.2457 87.7695 31.634 87.1557C43.0686 86.3189 54.4998 88.928 63.9797 94.5384C73.4596 100.149 80.4017 108.413 83.6232 117.924C86.8447 127.435 86.1462 137.603 81.6467 146.696C77.1473 155.789 69.1253 163.245 58.9476 167.793C48.7699 172.34 37.0663 173.699 25.8308 171.636C14.5953 169.574 4.52311 164.218 -2.66951 156.482C-7.4284 151.363 -10.7319 145.412 -12.3892 139.104C-13.7926 133.763 -18.0915 129.157 -23.614 129.093L-102.506 128.172Z" fill="#203E59"/>
<path d="M1490.32 574.601C1495.81 575.193 1500.77 571.222 1501.09 565.708C1503.79 518.975 1490.12 472.637 1462.25 434.766C1432.41 394.203 1388.44 366.299 1339.03 356.557C1289.63 346.816 1238.36 355.945 1195.35 382.144C1152.34 408.342 1120.71 449.708 1106.7 498.08C1092.69 546.452 1097.32 598.318 1119.67 643.447C1142.02 688.575 1180.47 723.689 1227.44 741.861C1274.41 760.033 1326.48 759.943 1373.38 741.609C1417.18 724.492 1453.5 692.633 1476.19 651.689C1478.86 646.858 1476.8 640.852 1471.84 638.418L1369.45 588.143C1364.49 585.709 1358.55 587.81 1355.41 592.353C1347.83 603.309 1337.12 611.835 1324.58 616.739C1308.91 622.864 1291.51 622.894 1275.82 616.823C1260.13 610.752 1247.28 599.021 1239.81 583.943C1232.35 568.866 1230.8 551.538 1235.48 535.377C1240.16 519.216 1250.73 505.396 1265.1 496.644C1279.47 487.891 1296.59 484.841 1313.1 488.095C1329.61 491.35 1344.3 500.673 1354.27 514.224C1362.25 525.075 1366.75 538.005 1367.3 551.315C1367.53 556.833 1371.42 561.781 1376.91 562.373L1490.32 574.601Z" fill="#203E59"/>
<defs>
<filter id="filter0_d_316_2297" x="-1" y="99.001" width="1441" height="567" filterUnits="userSpaceOnUse" color-interpolation-filters="sRGB">
<feFlood flood-opacity="0" result="BackgroundImageFix"/>
<feColorMatrix in="SourceAlpha" type="matrix" values="0 0 0 0 0 0 0 0 0 0 0 0 0 0 0 0 0 0 127 0" result="hardAlpha"/>
<feOffset/>
<feGaussianBlur stdDeviation="1"/>
<feComposite in2="hardAlpha" operator="out"/>
<feColorMatrix type="matrix" values="0 0 0 0 0 0 0 0 0 0 0 0 0 0 0 0 0 0 0.25 0"/>
<feBlend mode="normal" in2="BackgroundImageFix" result="effect1_dropShadow_316_2297"/>
<feBlend mode="normal" in="SourceGraphic" in2="effect1_dropShadow_316_2297" result="shape"/>
</filter>
</defs>
</svg>
