<svg width="1429" height="498" viewBox="0 0 1429 498" fill="none" xmlns="http://www.w3.org/2000/svg">
<rect width="1440" height="415" fill="white"/>
<path d="M1450.53 210.082C1470.84 190.573 1471.64 157.302 1446.57 144.483C1434.97 138.555 1422.61 134.099 1409.75 131.272C1380.17 124.765 1349.32 127.178 1321.1 138.204C1292.89 149.23 1268.58 168.375 1251.25 193.218C1233.91 218.06 1224.34 247.485 1223.73 277.77C1223.12 308.055 1231.5 337.841 1247.82 363.361C1264.14 388.881 1287.66 408.989 1315.41 421.143C1343.15 433.296 1373.88 436.948 1403.7 431.638C1416.66 429.33 1429.2 425.376 1441.02 419.919C1466.59 408.12 1467.13 374.844 1447.62 354.533L1433.18 339.493C1421.65 327.488 1402.21 328.311 1385.82 331.229V331.229C1375.86 333.004 1365.59 331.783 1356.32 327.723C1347.05 323.663 1339.2 316.945 1333.74 308.419C1328.29 299.893 1325.49 289.941 1325.7 279.823C1325.9 269.705 1329.1 259.874 1334.89 251.575C1340.68 243.275 1348.8 236.879 1358.23 233.195C1367.65 229.511 1377.96 228.705 1387.84 230.879V230.879C1404.1 234.454 1423.49 236.059 1435.49 224.528L1450.53 210.082Z" fill="#F4C247"/>
</svg>
