<svg width="26" height="26" viewBox="0 0 26 26" fill="none" xmlns="http://www.w3.org/2000/svg">
<path d="M0.00521739 26L1.76282 19.5416C0.604696 17.5563 -0.00375782 15.2984 1.74619e-05 13C1.74619e-05 5.8201 5.82011 0 13 0C20.1799 0 26 5.8201 26 13C26 20.1799 20.1799 26 13 26C10.7026 26.0037 8.44566 25.3957 6.46101 24.2385L0.00521739 26ZM8.30831 6.9004C8.14043 6.91082 7.97639 6.95504 7.82601 7.0304C7.68499 7.11025 7.55626 7.21009 7.44381 7.3268C7.28781 7.4737 7.19941 7.60109 7.10451 7.72459C6.62405 8.34989 6.36561 9.11744 6.37001 9.90599C6.37261 10.543 6.53901 11.1631 6.79901 11.7429C7.33071 12.9155 8.20561 14.157 9.36131 15.3075C9.63951 15.5844 9.91121 15.8626 10.2037 16.1213C11.6381 17.3842 13.3474 18.2949 15.1957 18.7811L15.9354 18.8942C16.1759 18.9072 16.4164 18.889 16.6582 18.8773C17.0368 18.8577 17.4065 18.7552 17.7411 18.577C17.9113 18.4893 18.0775 18.3939 18.239 18.291C18.239 18.291 18.2949 18.2546 18.4015 18.174C18.577 18.044 18.6849 17.9517 18.8305 17.7996C18.9384 17.6878 19.032 17.5565 19.1035 17.407C19.2049 17.1951 19.3063 16.7908 19.3479 16.4541C19.3791 16.1967 19.37 16.0563 19.3661 15.9692C19.3609 15.8301 19.2452 15.6858 19.1191 15.6247L18.3625 15.2854C18.3625 15.2854 17.2315 14.7927 16.5412 14.4781C16.4684 14.4464 16.3904 14.4283 16.3111 14.4248C16.2222 14.4157 16.1323 14.4257 16.0475 14.4541C15.9628 14.4826 15.8851 14.5289 15.8197 14.5899V14.5873C15.8132 14.5873 15.7261 14.6614 14.7862 15.8002C14.7323 15.8727 14.658 15.9275 14.5728 15.9576C14.4876 15.9877 14.3953 15.9917 14.3078 15.9692C14.2231 15.9465 14.1401 15.9179 14.0595 15.8834C13.8983 15.8158 13.8424 15.7898 13.7319 15.7417L13.7254 15.7391C12.9817 15.4144 12.2931 14.9758 11.6844 14.4391C11.5206 14.2961 11.3685 14.1401 11.2125 13.9893C10.7011 13.4995 10.2553 12.9454 9.88651 12.3409L9.80981 12.2174C9.75472 12.1344 9.71018 12.0449 9.67721 11.9509C9.62781 11.7598 9.75651 11.6064 9.75651 11.6064C9.75651 11.6064 10.0724 11.2606 10.2193 11.0734C10.3416 10.9178 10.4557 10.756 10.5612 10.5885C10.7146 10.3415 10.7627 10.088 10.6821 9.89169C10.3181 9.00249 9.94111 8.11719 9.55371 7.23839C9.47701 7.0642 9.24951 6.93939 9.04281 6.91469C8.97261 6.9069 8.90241 6.8991 8.83221 6.8939C8.65763 6.88522 8.48269 6.88826 8.30831 6.9004Z" fill="#02366E" fill-opacity="0.8"/>
</svg>
