<svg width="28" height="28" viewBox="0 0 28 28" fill="none" xmlns="http://www.w3.org/2000/svg">
<circle cx="14" cy="14" r="14" fill="#02366E" fill-opacity="0.8"/>
<path d="M16.432 14C16.432 14.481 16.2894 14.9512 16.0222 15.3512C15.7549 15.7511 15.3751 16.0628 14.9307 16.2469C14.4863 16.431 13.9973 16.4791 13.5256 16.3853C13.0538 16.2915 12.6205 16.0598 12.2803 15.7197C11.9402 15.3796 11.7086 14.9462 11.6148 14.4745C11.5209 14.0027 11.5691 13.5137 11.7532 13.0693C11.9372 12.625 12.2489 12.2451 12.6489 11.9779C13.0488 11.7107 13.519 11.568 14 11.568C14.6444 11.57 15.2618 11.8269 15.7175 12.2826C16.1732 12.7382 16.43 13.3556 16.432 14ZM21.6 10.656V17.344C21.6 18.4728 21.1516 19.5553 20.3535 20.3535C19.5553 21.1516 18.4728 21.6 17.344 21.6H10.656C9.52726 21.6 8.44473 21.1516 7.64658 20.3535C6.84842 19.5553 6.40002 18.4728 6.40002 17.344V10.656C6.40002 9.52726 6.84842 8.44473 7.64658 7.64658C8.44473 6.84842 9.52726 6.40002 10.656 6.40002H17.344C18.4728 6.40002 19.5553 6.84842 20.3535 7.64658C21.1516 8.44473 21.6 9.52726 21.6 10.656ZM17.648 14C17.648 13.2785 17.4341 12.5732 17.0332 11.9733C16.6324 11.3734 16.0626 10.9058 15.3961 10.6297C14.7295 10.3536 13.996 10.2814 13.2883 10.4221C12.5807 10.5629 11.9307 10.9103 11.4205 11.4205C10.9103 11.9307 10.5629 12.5807 10.4221 13.2883C10.2814 13.996 10.3536 14.7295 10.6297 15.3961C10.9058 16.0626 11.3734 16.6324 11.9733 17.0332C12.5732 17.4341 13.2785 17.648 14 17.648C14.9675 17.648 15.8954 17.2637 16.5796 16.5796C17.2637 15.8954 17.648 14.9675 17.648 14ZM18.864 10.048C18.864 9.86765 18.8105 9.69132 18.7103 9.54135C18.6101 9.39137 18.4677 9.27447 18.301 9.20545C18.1344 9.13642 17.951 9.11836 17.7741 9.15355C17.5972 9.18874 17.4347 9.2756 17.3071 9.40314C17.1796 9.53069 17.0927 9.69319 17.0576 9.8701C17.0224 10.047 17.0404 10.2304 17.1095 10.397C17.1785 10.5637 17.2954 10.7061 17.4453 10.8063C17.5953 10.9065 17.7717 10.96 17.952 10.96C18.1939 10.96 18.4259 10.8639 18.5969 10.6929C18.7679 10.5219 18.864 10.2899 18.864 10.048Z" fill="white"/>
</svg>
