<svg width="28" height="28" viewBox="0 0 28 28" fill="none" xmlns="http://www.w3.org/2000/svg">
<circle cx="14" cy="14" r="14" fill="#02366E" fill-opacity="0.8"/>
<path d="M20.4 11L14 14.75L7.6 11V9.5L14 13.25L20.4 9.5M20.4 8H7.6C6.712 8 6 8.6675 6 9.5V18.5C6 18.8978 6.16857 19.2794 6.46863 19.5607C6.76869 19.842 7.17565 20 7.6 20H20.4C20.8243 20 21.2313 19.842 21.5314 19.5607C21.8314 19.2794 22 18.8978 22 18.5V9.5C22 9.10218 21.8314 8.72064 21.5314 8.43934C21.2313 8.15804 20.8243 8 20.4 8Z" fill="white"/>
</svg>
