<svg width="15" height="14" viewBox="0 0 15 14" fill="none" xmlns="http://www.w3.org/2000/svg">
<path d="M7.5 13.5C6.61972 13.5 5.79531 13.343 5.02676 13.029C4.25775 12.7145 3.58873 12.2898 3.01972 11.7548C2.45023 11.2202 1.99812 10.5917 1.66338 9.86926C1.32911 9.14726 1.16197 8.37277 1.16197 7.5458C1.16197 6.71883 1.32911 5.94412 1.66338 5.22168C1.99812 4.49968 2.45023 3.87118 3.01972 3.33618C3.58873 2.80163 4.25775 2.37734 5.02676 2.06331C5.79531 1.74884 6.61972 1.5916 7.5 1.5916C8.38028 1.5916 9.20493 1.74884 9.97394 2.06331C10.7425 2.37734 11.4115 2.80163 11.981 3.33618C12.55 3.87118 13.0019 4.49968 13.3366 5.22168C13.6709 5.94412 13.838 6.71883 13.838 7.5458C13.838 8.37277 13.6709 9.14726 13.3366 9.86926C13.0019 10.5917 12.55 11.2202 11.981 11.7548C11.4115 12.2898 10.7425 12.7145 9.97394 13.029C9.20493 13.343 8.38028 13.5 7.5 13.5ZM9.47183 10.3244L10.4577 9.39822L8.20423 7.28117V4.23791H6.79577V7.81043L9.47183 10.3244ZM2.99296 0.5L3.97887 1.42621L0.985915 4.23791L0 3.3117L2.99296 0.5ZM12.007 0.5L15 3.3117L14.0141 4.23791L11.0211 1.42621L12.007 0.5Z" fill="#9C9C9C"/>
</svg>
